<?xml version="1.0" encoding="UTF-8"?>
<svg xmlns="http://www.w3.org/2000/svg" width="488.500" height="125.000" viewBox="19.000 15.750 488.500 125.000">

  <g transform="translate(12.0 10.0) scale(1.28)">
    <mask id="rivet-icon-knockout">
      <rect x="0" y="0" width="100" height="100" fill="white"/>
      <circle cx="50" cy="24" r="17.2" fill="black"/>
    </mask>
    <g mask="url(#rivet-icon-knockout)" fill="none" stroke="#F7F7F8" stroke-width="18" stroke-linecap="round">
      <path d="M43 32 L20 78"/>
      <path d="M57 32 L80 78"/>
    </g>
    <circle cx="50" cy="24" r="12.9" fill="#5E6AD2"/>
  </g>
  <path d="M9.85771812080537 0.0H25.948993288590604V-40.88053691275168H49.868456375838925C50.085906040268455 -40.88053691275168 50.375838926174495 -40.88053691275168 50.593288590604026 -40.88053691275168L72.12080536912752 0.0H90.24161073825503L66.9020134228188 -43.56241610738255C80.38389261744966 -48.41879194630872 88.57449664429531 -59.29127516778524 88.57449664429531 -74.36778523489933C88.57449664429531 -95.0255033557047 74.07785234899329 -108.0 50.955704697986576 -108.0H9.85771812080537ZM25.948993288590604 -54.57986577181208V-94.08322147651006H50.230872483221475C64.14765100671141 -94.08322147651006 72.7006711409396 -86.54496644295303 72.7006711409396 -74.36778523489933C72.7006711409396 -62.19060402684564 64.22013422818792 -54.57986577181208 50.303355704697985 -54.57986577181208Z" transform="translate(176.000 132.000)" fill="#F7F7F8"/>
  <path d="M8.625503355704698 0.0H23.91946308724832V-76.54228187919463H8.625503355704698Z" transform="translate(267.111 132.000)" fill="#F7F7F8"/>
  <path d="M30.87785234899329 0.0H47.11409395973154L76.3248322147651 -76.54228187919463H60.16107382550336L45.157046979865775 -34.5744966442953C43.12751677852349 -28.630872483221477 41.17046979865772 -22.614765100671143 39.28590604026846 -16.671140939597315C37.401342281879195 -22.614765100671143 35.44429530201342 -28.630872483221477 33.34228187919463 -34.5744966442953L18.120805369127517 -76.54228187919463H1.7395973154362416Z" transform="translate(299.366 132.000)" fill="#F7F7F8"/>
  <path d="M41.31543624161074 1.7395973154362416C58.638926174496646 1.7395973154362416 72.26577181208054 -8.480536912751678 75.09261744966443 -23.26711409395973H60.37852348993289C58.204026845637586 -16.018791946308724 51.53557046979866 -11.017449664429531 41.53288590604027 -11.017449664429531C28.123489932885906 -11.017449664429531 20.44026845637584 -20.36778523489933 19.93288590604027 -34.13959731543624H76.25234899328859V-38.271140939597316C76.25234899328859 -61.9006711409396 62.19060402684564 -78.28187919463087 40.51812080536913 -78.28187919463087C19.64295302013423 -78.28187919463087 4.856375838926175 -61.46577181208054 4.856375838926175 -38.126174496644296C4.856375838926175 -15.004026845637584 18.628187919463087 1.7395973154362416 41.31543624161074 1.7395973154362416ZM20.07785234899329 -45.736912751677856C21.38255033557047 -57.914093959731545 29.138255033557048 -65.5248322147651 40.66308724832215 -65.5248322147651C52.26040268456376 -65.5248322147651 60.08859060402685 -57.914093959731545 61.32080536912752 -45.736912751677856Z" transform="translate(374.677 132.000)" fill="#F7F7F8"/>
  <path d="M45.519463087248326 -76.54228187919463H30.00805369127517V-97.41744966442953H14.641610738255034V-76.54228187919463H1.159731543624161V-63.93020134228188H14.641610738255034V-18.265771812080537C14.641610738255034 -5.943624161073825 21.52751677852349 0.0 35.87919463087248 0.0H45.519463087248326V-12.612080536912751H38.053691275167786C31.96510067114094 -12.612080536912751 30.00805369127517 -14.569127516778524 30.00805369127517 -20.22281879194631V-63.93020134228188H45.519463087248326Z" transform="translate(454.915 132.000)" fill="#F7F7F8"/>
  <circle cx="284.362" cy="31.611" r="8.843" fill="#5E6AD2"/>
</svg>